<?xml version="1.0" encoding="utf-8"?>
<!-- Generator: Adobe Illustrator 26.5.0, SVG Export Plug-In . SVG Version: 6.00 Build 0)  -->
<svg version="1.1" id="Layer_1" xmlns="http://www.w3.org/2000/svg" xmlns:xlink="http://www.w3.org/1999/xlink" x="0px" y="0px"
	 viewBox="0 0 122.9 105.2" style="enable-background:new 0 0 122.9 105.2;" xml:space="preserve">
<style type="text/css">
	.st0{fill-rule:evenodd;clip-rule:evenodd;fill:#FFFFFF;}
</style>
<g>
	<path class="st0" d="M63.9,18.8v12.2h33.5c5.4,0,9.9,4.4,9.9,9.9v12.5h13.4c1.2,0,2.2,1,2.2,2.2v25.3c0,1.2-1,2.2-2.2,2.2h-13.4
		v12.5c0,5.4-4.4,9.9-9.9,9.9h-73c-5.4,0-9.9-4.4-9.9-9.9V82.9H2.2c-1.2,0-2.2-1-2.2-2.2V55.4c0-1.2,1-2.2,2.2-2.2h12.4V40.8
		c0-5.4,4.4-9.9,9.9-9.9h33.5V18.8c-3.8-1.3-6.6-4.9-6.6-9.1c0-5.3,4.3-9.6,9.6-9.6s9.6,4.3,9.6,9.6C70.5,13.9,67.8,17.5,63.9,18.8
		L63.9,18.8z M41,79.7h40.8c2,0,3.6,1.6,3.6,3.6v1.7c0,2-1.6,3.6-3.6,3.6H41c-2,0-3.6-1.6-3.6-3.6v-1.7C37.4,81.4,39,79.7,41,79.7
		L41,79.7z M78.7,47.6c5.4,0,9.7,4.3,9.7,9.7c0,5.4-4.3,9.7-9.7,9.7S69,62.7,69,57.3C69,51.9,73.3,47.6,78.7,47.6L78.7,47.6z
		 M44.2,47.6c5.4,0,9.7,4.3,9.7,9.7c0,5.4-4.3,9.7-9.7,9.7s-9.7-4.3-9.7-9.7C34.5,51.9,38.8,47.6,44.2,47.6L44.2,47.6z"/>
</g>
</svg>
